<svg id="Capa_2" data-name="Capa 2" xmlns="http://www.w3.org/2000/svg" xmlns:xlink="http://www.w3.org/1999/xlink" viewBox="0 0 135.92 92.59"><defs><style>.cls-1{fill:#8b3239;}.cls-2{fill:#722a35;}.cls-3{fill:#211915;opacity:0.5;}.cls-4{fill:url(#Nueva_muestra_de_degradado_11);}.cls-5{fill:url(#Degradado_sin_nombre_5);}.cls-6{fill:#391217;}.cls-7{fill:#666162;}</style><linearGradient id="Nueva_muestra_de_degradado_11" x1="75.2" y1="67.57" x2="144.95" y2="67.57" gradientUnits="userSpaceOnUse"><stop offset="0" stop-color="#8b3239"/><stop offset="0.11" stop-color="#7b2c32"/><stop offset="0.33" stop-color="#5e2026"/><stop offset="0.56" stop-color="#49181e"/><stop offset="0.78" stop-color="#3d1419"/><stop offset="1" stop-color="#391217"/></linearGradient><linearGradient id="Degradado_sin_nombre_5" x1="9.16" y1="67.57" x2="75.28" y2="67.57" gradientUnits="userSpaceOnUse"><stop offset="0" stop-color="#391217"/><stop offset="1" stop-color="#8b3239"/></linearGradient></defs><title>logoCafeteriasBA</title><path class="cls-1" d="M113.81,78.67h-12l-2.31,8H89.81l13.08-38.33h9.9l13.07,38.33h-9.68Zm-6-21.55s-.86,4.18-1.56,6.59L104,71.17h7.58l-2.15-7.46c-.7-2.41-1.56-6.59-1.56-6.59Z" transform="translate(-9.04 -30.71)"/><path class="cls-2" d="M89.81,86.71H99.5l2.31-8,2.21-7.5s3.33-10.43,3.76-14.05l2.33-8.74h-7.22Z" transform="translate(-9.04 -30.71)"/><polyline class="cls-3" points="94.4 42.43 80.77 56.01 90.46 56.01"/><path class="cls-1" d="M31.33,48.37H45.49c7.69,0,13.08,3.44,13.08,10a9.39,9.39,0,0,1-4.47,8.16v.1c4.41,1.34,6,5.26,6,8.64,0,8.36-7,11.42-14.64,11.42H31.33ZM45.59,63.23A3.25,3.25,0,0,0,49,59.69c0-1.77-1-3.27-3.55-3.27H40.75v6.81Zm.81,15.45a3.82,3.82,0,0,0,4.09-4,3.69,3.69,0,0,0-4-3.91h-5.7v7.94Z" transform="translate(-9.04 -30.71)"/><rect class="cls-2" x="22.29" y="17.67" width="9.42" height="38.35"/><polyline class="cls-3" points="31.71 46.63 22.29 56.02 31.71 56.02"/><path class="cls-4" d="M108.11,104.42a42.33,42.33,0,0,1-11.5-1.83c-12.48-4-20.25-16.28-21.41-18.16L77,81a38.53,38.53,0,0,0,6.59,9.45,33.46,33.46,0,0,0,14.09,9.3,35.25,35.25,0,0,0,10.47,1.65A33.78,33.78,0,1,0,98,35.35,34.23,34.23,0,0,0,87.24,41,34.9,34.9,0,0,0,77,54.08l-1.69-3.39A37,37,0,0,1,97,32.44a36.85,36.85,0,0,1,48,35.13,36.52,36.52,0,0,1-7.75,22.62,37.19,37.19,0,0,1-12.64,10.36A36.44,36.44,0,0,1,108.11,104.42Z" transform="translate(-9.04 -30.71)"/><path class="cls-5" d="M46,104.42a37.35,37.35,0,0,1-14.11-2.79,36.86,36.86,0,1,1,30.65-67A37.16,37.16,0,0,1,75.21,45.1c-.59.91-1.17,1.82-1.75,2.73A33.94,33.94,0,0,0,60.55,37.06,39.54,39.54,0,0,0,46,33.8a33.78,33.78,0,1,0,0,67.55,40,40,0,0,0,14.45-3.21,34.53,34.53,0,0,0,8.2-5.51,34.05,34.05,0,0,0,4.87-5.49c.59.93,1.18,1.87,1.76,2.81a38.5,38.5,0,0,1-12.82,10.6A36.59,36.59,0,0,1,46,104.42Z" transform="translate(-9.04 -30.71)"/><polygon class="cls-6" points="0 70.83 2.62 73.45 5.98 70.4 10.05 67.6 9.03 64.42 5.85 63.4 3.05 67.47 0 70.83"/><polygon class="cls-6" points="135.92 2.62 133.3 0 129.94 3.05 125.86 5.85 126.89 9.03 130.07 10.05 132.87 5.98 135.92 2.62"/><path class="cls-7" d="M74.87,98.47" transform="translate(-9.04 -30.71)"/><path class="cls-1" d="M36.66,113.74a4.64,4.64,0,0,1,3.43,1.33l-.83,1.23a3.71,3.71,0,0,0-2.53-1,3.11,3.11,0,0,0-3.17,3.25,3.16,3.16,0,0,0,3.23,3.28,4.13,4.13,0,0,0,2.81-1.23l.7,1.28a5,5,0,0,1-3.64,1.46,4.78,4.78,0,1,1,0-9.55Z" transform="translate(-9.04 -30.71)"/><path class="cls-1" d="M48.23,117.38h.4v-.16a1.77,1.77,0,0,0-2-2,4.61,4.61,0,0,0-2.54.88l-.73-1.28a5.75,5.75,0,0,1,3.41-1.08c2.31,0,3.61,1.26,3.61,3.57v5.77H48.75v-.87a6.25,6.25,0,0,1,0-.72h0a3.14,3.14,0,0,1-2.92,1.8,2.85,2.85,0,0,1-3.1-2.77C42.73,117.51,46.7,117.38,48.23,117.38Zm-2,4.51c1.48,0,2.44-1.55,2.44-2.9v-.29H48.2c-1.32,0-3.7.09-3.7,1.73A1.53,1.53,0,0,0,46.21,121.89Z" transform="translate(-9.04 -30.71)"/><path class="cls-1" d="M54.61,115.49H53.48v-1.41h1.13v-.43A3.11,3.11,0,0,1,58,110.26a3.35,3.35,0,0,1,.66.06v1.49a3,3,0,0,0-.45,0,1.73,1.73,0,0,0-1.91,1.91v.39h2.17v1.41H56.34v7.59H54.61Z" transform="translate(-9.04 -30.71)"/><path class="cls-1" d="M65.3,113.74c2.58,0,4,1.91,4,4.27,0,.24-.06.76-.06.76H62.54a3,3,0,0,0,3.14,3,4.33,4.33,0,0,0,2.7-1.06L69.1,122a5.44,5.44,0,0,1-3.53,1.29,4.64,4.64,0,0,1-4.83-4.77A4.47,4.47,0,0,1,65.3,113.74Zm2.16,3.71a2.15,2.15,0,0,0-2.2-2.32,2.61,2.61,0,0,0-2.66,2.32Z" transform="translate(-9.04 -30.71)"/><path class="cls-1" d="M72.94,115.49H71.75v-1.41H73v-2.63h1.69v2.63h2.2v1.41h-2.2v4.05a1.82,1.82,0,0,0,2,2.06,1.86,1.86,0,0,0,.41,0v1.55a4.27,4.27,0,0,1-.61,0c-1.17,0-3.5-.36-3.5-3.41Z" transform="translate(-9.04 -30.71)"/><path class="cls-1" d="M84.13,113.74c2.58,0,4,1.91,4,4.27,0,.24,0,.76,0,.76H81.38a3,3,0,0,0,3.13,3,4.38,4.38,0,0,0,2.71-1.06l.72,1.28a5.44,5.44,0,0,1-3.53,1.29,4.65,4.65,0,0,1-4.84-4.77A4.48,4.48,0,0,1,84.13,113.74Zm2.17,3.71a2.16,2.16,0,0,0-2.2-2.32,2.61,2.61,0,0,0-2.67,2.32Z" transform="translate(-9.04 -30.71)"/><path class="cls-1" d="M91.4,114h1.69v1.58c0,.38,0,.69,0,.69h0A3.12,3.12,0,0,1,96,113.85a3.79,3.79,0,0,1,.45,0v1.74a2.37,2.37,0,0,0-.51-.06,2.77,2.77,0,0,0-2.56,2.15,5.59,5.59,0,0,0-.21,1.64v3.73H91.4Z" transform="translate(-9.04 -30.71)"/><path class="cls-1" d="M99.35,114h1.75v9.12H99.35Zm1.42-3.61h1.88l-1.73,2.29H99.45Z" transform="translate(-9.04 -30.71)"/><path class="cls-1" d="M109.78,117.38h.4v-.16a1.77,1.77,0,0,0-2-2,4.61,4.61,0,0,0-2.54.88l-.72-1.28a5.7,5.7,0,0,1,3.4-1.08c2.31,0,3.61,1.26,3.61,3.57v5.77H110.3v-.87a6.25,6.25,0,0,1,0-.72h0a3.14,3.14,0,0,1-2.92,1.8,2.85,2.85,0,0,1-3.1-2.77C104.28,117.51,108.25,117.38,109.78,117.38Zm-2,4.51c1.48,0,2.44-1.55,2.44-2.9v-.29h-.45c-1.32,0-3.7.09-3.7,1.73A1.53,1.53,0,0,0,107.76,121.89Z" transform="translate(-9.04 -30.71)"/><path class="cls-1" d="M115.84,120.72a3.92,3.92,0,0,0,2.61,1.06c.76,0,1.52-.4,1.52-1.14,0-1.67-4.69-1.33-4.69-4.3,0-1.66,1.48-2.6,3.3-2.6a4.11,4.11,0,0,1,2.94,1l-.71,1.32a3.31,3.31,0,0,0-2.25-.82c-.76,0-1.5.33-1.5,1.12,0,1.64,4.69,1.28,4.69,4.27,0,1.52-1.3,2.65-3.3,2.65A4.92,4.92,0,0,1,115,122Z" transform="translate(-9.04 -30.71)"/></svg>