<?xml version="1.0" encoding="utf-8"?>
<!-- Generator: Adobe Illustrator 23.0.1, SVG Export Plug-In . SVG Version: 6.00 Build 0)  -->
<svg version="1.1" xmlns="http://www.w3.org/2000/svg" xmlns:xlink="http://www.w3.org/1999/xlink" x="0px" y="0px"
	 viewBox="0 0 244.5 244.5" style="enable-background:new 0 0 244.5 244.5;" xml:space="preserve">
<style type="text/css">
	.st0{display:none;}
	.st1{display:inline;}
	.st2{fill:#8B3239;}
	.st3{fill:#722A35;}
	.st4{opacity:0.5;fill:#211915;}
	.st5{fill:url(#SVGID_1_);}
	.st6{fill:url(#SVGID_2_);}
	.st7{fill:#391217;}
	.st8{fill:#666162;}
	.st9{fill:#FFFFFF;}
	.st10{opacity:0.35;fill:#D5D6D9;}
	.st11{opacity:0.16;fill:#434142;}
	.st12{fill:#656061;}
</style>
<g id="Capa_2" class="st0">
	<g class="st1">
		<g>
			<g>
				<g>
					<g>
						<path class="st2" d="M204.3,169.2h-12l-2.3,8h-9.7l13.1-38.3h9.9l13.1,38.3h-9.7L204.3,169.2z M198.3,147.6
							c0,0-0.9,4.2-1.6,6.6l-2.2,7.5h7.6l-2.2-7.5c-0.7-2.4-1.6-6.6-1.6-6.6H198.3z"/>
					</g>
				</g>
				<path class="st3" d="M180.3,177.2h9.7l2.3-8l2.2-7.5c0,0,3.3-10.4,3.8-14l2.3-8.7h-7.2L180.3,177.2z"/>
				<polyline class="st4" points="193.9,163.6 180.3,177.2 190,177.2 				"/>
			</g>
			<g>
				<g>
					<g>
						<path class="st2" d="M121.8,138.9H136c7.7,0,13.1,3.4,13.1,10c0,3.2-1.6,6.5-4.5,8.2v0.1c4.4,1.3,6,5.3,6,8.6
							c0,8.4-7,11.4-14.6,11.4h-14.2V138.9z M136.1,153.7c2.4,0,3.4-1.7,3.4-3.5c0-1.8-1-3.3-3.6-3.3h-4.7v6.8H136.1z M136.9,169.2
							c2.7,0,4.1-1.9,4.1-4c0-2.1-1.3-3.9-4-3.9h-5.7v7.9H136.9z"/>
					</g>
				</g>
				<rect x="121.8" y="138.9" class="st3" width="9.4" height="38.3"/>
				<polyline class="st4" points="131.3,167.8 121.8,177.2 131.3,177.2 				"/>
			</g>
			<linearGradient id="SVGID_1_" gradientUnits="userSpaceOnUse" x1="165.6968" y1="158.0748" x2="235.453" y2="158.0748">
				<stop  offset="0" style="stop-color:#8B3239"/>
				<stop  offset="0.1076" style="stop-color:#7B2C32"/>
				<stop  offset="0.334" style="stop-color:#5E2026"/>
				<stop  offset="0.5599" style="stop-color:#49181E"/>
				<stop  offset="0.783" style="stop-color:#3D1419"/>
				<stop  offset="1" style="stop-color:#391217"/>
			</linearGradient>
			<path class="st5" d="M198.6,194.9c0,0-5.9,0-11.5-1.8c-12.5-4-20.3-16.3-21.4-18.2c0.6-1.2,1.2-2.3,1.8-3.5
				c2.2,4.4,4.7,7.5,6.6,9.5c2.1,2.2,6.5,6.8,14.1,9.3c4.9,1.6,9.4,1.7,10.5,1.7c10.5,0,20.2-4.8,26.7-13c4.7-6,7.1-13.1,7.1-20.7
				c0-18.6-15.2-33.8-33.8-33.8c-3.5,0-6.9,0.5-10.1,1.6c-2,0.6-6.3,2.2-10.7,5.7c-5.8,4.6-8.8,10-10.2,13.1
				c-0.6-1.1-1.1-2.3-1.7-3.4c1.5-2.9,4.4-7.5,9.5-11.7c2.5-2.1,6.6-4.8,12.2-6.6c3.5-1.1,7.3-1.7,11.1-1.7
				c9.8,0,19.1,3.8,26.1,10.8c7,7,10.8,16.2,10.8,26.1c0,8.3-2.7,16.1-7.8,22.6c-3.4,4.3-7.7,7.9-12.6,10.4
				C209.9,193.6,204.4,194.9,198.6,194.9z"/>
			<linearGradient id="SVGID_2_" gradientUnits="userSpaceOnUse" x1="99.6581" y1="158.0748" x2="165.7836" y2="158.0748">
				<stop  offset="0" style="stop-color:#391217"/>
				<stop  offset="1" style="stop-color:#8B3239"/>
			</linearGradient>
			<path class="st6" d="M136.5,194.9c-6.9,0-12.1-1.9-14.1-2.8c-4.4-1.8-8.5-4.5-11.9-8c-7-7-10.8-16.2-10.8-26.1
				s3.8-19.1,10.8-26.1c7-7,16.2-10.8,26.1-10.8c5.8,0,11.4,1.3,16.5,3.9c4.9,2.5,9.3,6.1,12.7,10.5c-0.6,0.9-1.2,1.8-1.7,2.7
				c-1.8-2.5-5.9-7.4-12.9-10.8c-0.4-0.2-7.3-3.3-14.5-3.3c-18.6,0-33.8,15.2-33.8,33.8c0,18.6,15.2,33.8,33.8,33.8
				c7.4,0,14.4-3.2,14.4-3.2c2.3-1.1,5.2-2.8,8.2-5.5c2.1-1.9,3.7-3.8,4.9-5.5c0.6,0.9,1.2,1.9,1.8,2.8c-2.5,3.1-6.6,7.5-12.8,10.6
				c-3.2,1.6-6,2.4-7.2,2.7C144.1,194.2,140.8,194.9,136.5,194.9z"/>
			<polygon class="st7" points="99.5,192 102.2,194.7 105.5,191.6 109.6,188.8 108.6,185.6 105.4,184.6 102.6,188.7 			"/>
			<polygon class="st7" points="235.5,123.8 232.8,121.2 229.5,124.3 225.4,127.1 226.4,130.2 229.6,131.3 232.4,127.2 			"/>
		</g>
		<path class="st8" d="M165.4,189"/>
		<g>
			<path class="st2" d="M127.2,204.2c2.3,0,3.4,1.3,3.4,1.3l-0.8,1.2c0,0-1-1-2.5-1c-1.8,0-3.2,1.4-3.2,3.2c0,1.9,1.3,3.3,3.2,3.3
				c1.7,0,2.8-1.2,2.8-1.2l0.7,1.3c0,0-1.3,1.5-3.6,1.5c-2.9,0-4.9-2-4.9-4.8C122.3,206.3,124.3,204.2,127.2,204.2z"/>
			<path class="st2" d="M138.7,207.9h0.4v-0.2c0-1.5-0.8-2-2-2c-1.4,0-2.5,0.9-2.5,0.9l-0.7-1.3c0,0,1.3-1.1,3.4-1.1
				c2.3,0,3.6,1.3,3.6,3.6v5.8h-1.6v-0.9c0-0.4,0-0.7,0-0.7h0c0,0-0.7,1.8-2.9,1.8c-1.6,0-3.1-1-3.1-2.8
				C133.2,208,137.2,207.9,138.7,207.9z M136.7,212.4c1.5,0,2.4-1.6,2.4-2.9v-0.3h-0.5c-1.3,0-3.7,0.1-3.7,1.7
				C135,211.7,135.6,212.4,136.7,212.4z"/>
			<path class="st2" d="M145.1,206H144v-1.4h1.1v-0.4c0-3,2.3-3.4,3.4-3.4c0.4,0,0.7,0.1,0.7,0.1v1.5c0,0-0.2,0-0.5,0
				c-0.7,0-1.9,0.2-1.9,1.9v0.4h2.2v1.4h-2.2v7.6h-1.7V206z"/>
			<path class="st2" d="M155.8,204.2c2.6,0,3.9,1.9,3.9,4.3c0,0.2-0.1,0.8-0.1,0.8H153c0.1,2,1.5,3,3.1,3c1.6,0,2.7-1.1,2.7-1.1
				l0.7,1.3c0,0-1.4,1.3-3.5,1.3c-2.9,0-4.8-2.1-4.8-4.8C151.2,206.1,153.2,204.2,155.8,204.2z M158,208c-0.1-1.6-1-2.3-2.2-2.3
				c-1.3,0-2.4,0.8-2.7,2.3H158z"/>
			<path class="st2" d="M163.4,206h-1.2v-1.4h1.2V202h1.7v2.6h2.2v1.4h-2.2v4.1c0,1.8,1.3,2.1,1.9,2.1c0.3,0,0.4,0,0.4,0v1.6
				c0,0-0.3,0-0.6,0c-1.2,0-3.5-0.4-3.5-3.4V206z"/>
			<path class="st2" d="M174.6,204.2c2.6,0,3.9,1.9,3.9,4.3c0,0.2-0.1,0.8-0.1,0.8h-6.7c0.1,2,1.5,3,3.1,3c1.6,0,2.7-1.1,2.7-1.1
				l0.7,1.3c0,0-1.4,1.3-3.5,1.3c-2.9,0-4.8-2.1-4.8-4.8C170.1,206.1,172,204.2,174.6,204.2z M176.8,208c-0.1-1.6-1-2.3-2.2-2.3
				c-1.3,0-2.4,0.8-2.7,2.3H176.8z"/>
			<path class="st2" d="M181.9,204.5h1.7v1.6c0,0.4,0,0.7,0,0.7h0c0.4-1.3,1.5-2.4,2.9-2.4c0.2,0,0.5,0,0.5,0v1.7
				c0,0-0.2-0.1-0.5-0.1c-1.1,0-2.1,0.8-2.6,2.1c-0.2,0.5-0.2,1.1-0.2,1.6v3.7h-1.7V204.5z"/>
			<path class="st2" d="M189.8,204.5h1.7v9.1h-1.7V204.5z M191.3,200.9h1.9l-1.7,2.3H190L191.3,200.9z"/>
			<path class="st2" d="M200.3,207.9h0.4v-0.2c0-1.5-0.8-2-2-2c-1.4,0-2.5,0.9-2.5,0.9l-0.7-1.3c0,0,1.3-1.1,3.4-1.1
				c2.3,0,3.6,1.3,3.6,3.6v5.8h-1.6v-0.9c0-0.4,0-0.7,0-0.7h0c0,0-0.7,1.8-2.9,1.8c-1.6,0-3.1-1-3.1-2.8
				C194.8,208,198.7,207.9,200.3,207.9z M198.3,212.4c1.5,0,2.4-1.6,2.4-2.9v-0.3h-0.5c-1.3,0-3.7,0.1-3.7,1.7
				C196.6,211.7,197.1,212.4,198.3,212.4z"/>
			<path class="st2" d="M206.3,211.2c0,0,1,1.1,2.6,1.1c0.8,0,1.5-0.4,1.5-1.1c0-1.7-4.7-1.3-4.7-4.3c0-1.7,1.5-2.6,3.3-2.6
				c2,0,2.9,1,2.9,1l-0.7,1.3c0,0-0.8-0.8-2.3-0.8c-0.8,0-1.5,0.3-1.5,1.1c0,1.6,4.7,1.3,4.7,4.3c0,1.5-1.3,2.6-3.3,2.6
				c-2.2,0-3.5-1.3-3.5-1.3L206.3,211.2z"/>
		</g>
	</g>
</g>
<g id="Capa_3">
	<g>
		<g>
			<g>
				<g>
					<path class="st9" d="M188.3,125.3h-21.5l-4.1,14.4h-17.4l23.5-68.8h17.8l23.5,68.8h-17.4L188.3,125.3z M177.5,86.6
						c0,0-1.5,7.5-2.8,11.8l-4,13.4h13.6l-3.9-13.4c-1.3-4.3-2.8-11.8-2.8-11.8H177.5z"/>
				</g>
				<path class="st10" d="M145.2,139.7h17.4l4.1-14.4l4-13.5c0,0,6-18.7,6.8-25.2l4.2-15.7h-12.9L145.2,139.7z"/>
				<polyline class="st11" points="169.7,115.3 145.2,139.7 162.6,139.7 				"/>
			</g>
			<g>
				<g>
					<path class="st9" d="M40.3,70.9h25.4c13.8,0,23.5,6.2,23.5,18c0,5.8-2.8,11.6-8,14.6v0.2c7.9,2.4,10.8,9.4,10.8,15.5
						c0,15-12.6,20.5-26.3,20.5H40.3V70.9z M65.9,97.6c4.2,0,6.1-3.1,6.1-6.3c0-3.2-1.8-5.9-6.4-5.9h-8.4v12.2H65.9z M67.4,125.3
						c4.9,0,7.3-3.4,7.3-7.2s-2.3-7-7.2-7H57.2v14.2H67.4z"/>
				</g>
				<rect x="40.3" y="70.9" class="st10" width="16.9" height="68.8"/>
				<polyline class="st11" points="57.2,122.8 40.3,139.7 57.2,139.7 				"/>
			</g>
			<path class="st9" d="M178,171.4c0,0-10.5,0-20.6-3.3c-22.4-7.3-36.3-29.2-38.4-32.6c1.1-2.1,2.1-4.2,3.2-6.2
				c3.9,7.9,8.5,13.4,11.8,16.9c3.7,3.9,11.7,12.2,25.3,16.7c8.8,2.9,16.9,3,18.8,3c18.8,0,36.3-8.5,47.8-23.4
				c8.3-10.7,12.8-23.6,12.8-37.2c0-33.4-27.2-60.6-60.6-60.6c-6.3,0-12.4,1-18.2,2.8c-3.6,1.1-11.2,3.9-19.2,10.1
				c-10.5,8.2-15.8,17.9-18.4,23.5c-1-2-2-4.1-3-6.1c2.7-5.1,7.8-13.4,17-20.9c4.5-3.7,11.8-8.7,21.9-11.8c6.4-2,13.1-3.1,20-3.1
				c17.7,0,34.2,6.9,46.7,19.4c12.5,12.5,19.4,29.1,19.4,46.7c0,14.8-4.8,28.9-13.9,40.6c-6,7.8-13.9,14.2-22.7,18.6
				C198.3,169.1,188.4,171.4,178,171.4z"/>
			<path class="st9" d="M66.7,171.4c-12.3,0-21.6-3.5-25.3-5c-7.9-3.3-15.2-8.1-21.4-14.4C7.4,139.6,0.6,123,0.6,105.3
				s6.9-34.2,19.4-46.7C32.4,46.1,49,39.3,66.7,39.3c10.4,0,20.4,2.4,29.7,7C105.1,50.7,113,57.2,119,65c-1,1.6-2.1,3.3-3.1,4.9
				c-3.2-4.5-10.5-13.3-23.2-19.3c-0.7-0.3-13.1-5.9-26.1-5.9c-33.4,0-60.6,27.2-60.6,60.6c0,33.4,27.2,60.6,60.6,60.6
				c13.2,0,25.9-5.8,25.9-5.8c4.1-1.9,9.4-5,14.7-9.9c3.8-3.4,6.6-6.9,8.7-9.8c1.1,1.7,2.1,3.4,3.2,5c-4.4,5.6-11.9,13.5-23,19
				c-5.8,2.9-10.8,4.3-12.8,4.8C80.3,170.1,74.3,171.4,66.7,171.4z"/>
			<polygon class="st9" points="0.4,166.3 5.1,171 11.1,165.5 18.4,160.5 16.5,154.8 10.9,152.9 5.8,160.2 			"/>
			<polygon class="st9" points="244.1,43.9 239.4,39.2 233.4,44.7 226.1,49.7 228,55.4 233.6,57.3 238.7,49.9 			"/>
		</g>
		<path class="st12" d="M118.4,160.8"/>
		<g>
			<path class="st9" d="M49.9,188.1c4.1,0,6.1,2.4,6.1,2.4l-1.5,2.2c0,0-1.7-1.9-4.5-1.9c-3.3,0-5.7,2.5-5.7,5.8
				c0,3.3,2.4,5.9,5.8,5.9c3,0,5-2.2,5-2.2l1.3,2.3c0,0-2.3,2.6-6.5,2.6c-5.1,0-8.8-3.7-8.8-8.6C41.1,191.9,44.8,188.1,49.9,188.1z"
				/>
			<path class="st9" d="M70.7,194.7h0.7v-0.3c0-2.7-1.5-3.6-3.6-3.6c-2.5,0-4.6,1.6-4.6,1.6l-1.3-2.3c0,0,2.4-1.9,6.1-1.9
				c4.1,0,6.5,2.3,6.5,6.4v10.3h-2.9v-1.6c0-0.7,0.1-1.3,0.1-1.3h-0.1c0,0-1.3,3.2-5.2,3.2c-2.8,0-5.6-1.7-5.6-5
				C60.8,194.9,67.9,194.7,70.7,194.7z M67,202.8c2.7,0,4.4-2.8,4.4-5.2V197h-0.8c-2.4,0-6.6,0.2-6.6,3.1
				C64,201.5,65,202.8,67,202.8z"/>
			<path class="st9" d="M82.1,191.3h-2v-2.5h2V188c0-5.4,4.1-6.1,6.1-6.1c0.7,0,1.2,0.1,1.2,0.1v2.7c0,0-0.3-0.1-0.8-0.1
				c-1.2,0-3.4,0.4-3.4,3.4v0.7h3.9v2.5h-3.9v13.6h-3.1V191.3z"/>
			<path class="st9" d="M101.3,188.1c4.6,0,7.1,3.4,7.1,7.7c0,0.4-0.1,1.4-0.1,1.4H96.3c0.2,3.6,2.7,5.4,5.6,5.4
				c2.8,0,4.8-1.9,4.8-1.9l1.3,2.3c0,0-2.4,2.3-6.3,2.3c-5.1,0-8.7-3.7-8.7-8.6C93.1,191.5,96.6,188.1,101.3,188.1z M105.1,194.8
				c-0.1-2.8-1.8-4.2-3.9-4.2c-2.4,0-4.3,1.5-4.8,4.2H105.1z"/>
			<path class="st9" d="M115,191.3h-2.1v-2.5h2.2V184h3v4.7h3.9v2.5h-3.9v7.3c0,3.3,2.3,3.7,3.5,3.7c0.5,0,0.7-0.1,0.7-0.1v2.8
				c0,0-0.5,0.1-1.1,0.1c-2.1,0-6.3-0.6-6.3-6.1V191.3z"/>
			<path class="st9" d="M135,188.1c4.6,0,7.1,3.4,7.1,7.7c0,0.4-0.1,1.4-0.1,1.4h-11.9c0.2,3.6,2.7,5.4,5.6,5.4
				c2.8,0,4.8-1.9,4.8-1.9l1.3,2.3c0,0-2.4,2.3-6.3,2.3c-5.1,0-8.7-3.7-8.7-8.6C126.9,191.5,130.4,188.1,135,188.1z M138.9,194.8
				c-0.1-2.8-1.8-4.2-3.9-4.2c-2.4,0-4.3,1.5-4.8,4.2H138.9z"/>
			<path class="st9" d="M148.1,188.5h3v2.8c0,0.7-0.1,1.2-0.1,1.2h0.1c0.7-2.4,2.7-4.3,5.2-4.3c0.4,0,0.8,0.1,0.8,0.1v3.1
				c0,0-0.4-0.1-0.9-0.1c-2,0-3.8,1.4-4.6,3.8c-0.3,0.9-0.4,1.9-0.4,2.9v6.7h-3.1V188.5z"/>
			<path class="st9" d="M162.3,188.5h3.1v16.4h-3.1V188.5z M164.9,182.1h3.4l-3.1,4.1h-2.6L164.9,182.1z"/>
			<path class="st9" d="M181,194.7h0.7v-0.3c0-2.7-1.5-3.6-3.6-3.6c-2.5,0-4.6,1.6-4.6,1.6l-1.3-2.3c0,0,2.4-1.9,6.1-1.9
				c4.1,0,6.5,2.3,6.5,6.4v10.3H182v-1.6c0-0.7,0.1-1.3,0.1-1.3H182c0,0-1.3,3.2-5.2,3.2c-2.8,0-5.6-1.7-5.6-5
				C171.2,194.9,178.3,194.7,181,194.7z M177.4,202.8c2.7,0,4.4-2.8,4.4-5.2V197H181c-2.4,0-6.6,0.2-6.6,3.1
				C174.4,201.5,175.4,202.8,177.4,202.8z"/>
			<path class="st9" d="M191.9,200.7c0,0,1.8,1.9,4.7,1.9c1.4,0,2.7-0.7,2.7-2c0-3-8.4-2.4-8.4-7.7c0-3,2.7-4.7,5.9-4.7
				c3.6,0,5.3,1.8,5.3,1.8l-1.3,2.4c0,0-1.5-1.5-4-1.5c-1.4,0-2.7,0.6-2.7,2c0,2.9,8.4,2.3,8.4,7.7c0,2.7-2.3,4.8-5.9,4.8
				c-4,0-6.2-2.4-6.2-2.4L191.9,200.7z"/>
		</g>
	</g>
</g>
</svg>
